<svg viewBox="0 0 1040 560" xmlns="http://www.w3.org/2000/svg" font-family="Helvetica,Arial,sans-serif">
<rect width="1040" height="560" fill="white"/>
<defs><marker id="ah" markerWidth="9" markerHeight="9" refX="4" refY="4.5" orient="auto"><path d="M0,1 L8,4.5 L0,8 z" fill="#172B4D"/></marker></defs>
<text x="520.0" y="30" font-size="19" font-weight="bold" fill="#172B4D" text-anchor="middle">2-stack cascode NMOS current mirror  ·  4T</text>
<text x="520.0" y="50" font-size="12.5" fill="#5b6b7f" text-anchor="middle">SKY130 nfet_01v8  ·  I_ref = 10 µA  ·  VDD = 1.8 V  ·  TT 27 °C   (op point per device)</text>
<line x1="300" y1="95" x2="680" y2="95" stroke="#172B4D" stroke-width="1.7"/>
<text x="300" y="86" font-size="12" fill="#5b6b7f" text-anchor="start" font-weight="normal">VDD = 1.8 V</text>
<line x1="390" y1="95" x2="390" y2="107.5" stroke="#172B4D" stroke-width="1.7"/>
<circle cx="390" cy="122.5" r="15" fill="none" stroke="#172B4D" stroke-width="1.7"/>
<line x1="390" y1="130.5" x2="390" y2="115.5" stroke="#172B4D" stroke-width="1.7" marker-end="url(#ah)"/>
<line x1="390" y1="137.5" x2="390" y2="150" stroke="#172B4D" stroke-width="1.7"/>
<text x="411" y="126.5" font-size="12.5" fill="#5b6b7f" text-anchor="start" font-style="italic" font-weight="normal">I_ref = 10 µA</text>
<line x1="390" y1="183" x2="390" y2="197" stroke="#172B4D" stroke-width="1.7"/>
<line x1="390" y1="233" x2="390" y2="247" stroke="#172B4D" stroke-width="1.7"/>
<line x1="390" y1="197" x2="390" y2="233" stroke="#172B4D" stroke-width="2.6"/>
<line x1="382" y1="200" x2="382" y2="230" stroke="#172B4D" stroke-width="2.6"/>
<line x1="360" y1="215" x2="382" y2="215" stroke="#172B4D" stroke-width="1.7"/>
<line x1="390" y1="247" x2="389.99" y2="237" stroke="#172B4D" stroke-width="1.7" marker-end="url(#ah)"/>
<text x="402" y="220" font-size="15" fill="#172B4D" text-anchor="start" font-weight="bold">M3</text>
<line x1="390" y1="328" x2="390" y2="342" stroke="#172B4D" stroke-width="1.7"/>
<line x1="390" y1="378" x2="390" y2="392" stroke="#172B4D" stroke-width="1.7"/>
<line x1="390" y1="342" x2="390" y2="378" stroke="#172B4D" stroke-width="2.6"/>
<line x1="382" y1="345" x2="382" y2="375" stroke="#172B4D" stroke-width="2.6"/>
<line x1="360" y1="360" x2="382" y2="360" stroke="#172B4D" stroke-width="1.7"/>
<line x1="390" y1="392" x2="389.99" y2="382" stroke="#172B4D" stroke-width="1.7" marker-end="url(#ah)"/>
<text x="402" y="365" font-size="15" fill="#172B4D" text-anchor="start" font-weight="bold">M1</text>
<line x1="590" y1="183" x2="590" y2="197" stroke="#172B4D" stroke-width="1.7"/>
<line x1="590" y1="233" x2="590" y2="247" stroke="#172B4D" stroke-width="1.7"/>
<line x1="590" y1="197" x2="590" y2="233" stroke="#172B4D" stroke-width="2.6"/>
<line x1="582" y1="200" x2="582" y2="230" stroke="#172B4D" stroke-width="2.6"/>
<line x1="560" y1="215" x2="582" y2="215" stroke="#172B4D" stroke-width="1.7"/>
<line x1="590" y1="247" x2="589.99" y2="237" stroke="#172B4D" stroke-width="1.7" marker-end="url(#ah)"/>
<text x="602" y="220" font-size="15" fill="#172B4D" text-anchor="start" font-weight="bold">M4</text>
<line x1="590" y1="328" x2="590" y2="342" stroke="#172B4D" stroke-width="1.7"/>
<line x1="590" y1="378" x2="590" y2="392" stroke="#172B4D" stroke-width="1.7"/>
<line x1="590" y1="342" x2="590" y2="378" stroke="#172B4D" stroke-width="2.6"/>
<line x1="582" y1="345" x2="582" y2="375" stroke="#172B4D" stroke-width="2.6"/>
<line x1="560" y1="360" x2="582" y2="360" stroke="#172B4D" stroke-width="1.7"/>
<line x1="590" y1="392" x2="589.99" y2="382" stroke="#172B4D" stroke-width="1.7" marker-end="url(#ah)"/>
<text x="602" y="365" font-size="15" fill="#172B4D" text-anchor="start" font-weight="bold">M2</text>
<line x1="390" y1="150" x2="390" y2="183" stroke="#172B4D" stroke-width="1.7"/>
<line x1="390" y1="247" x2="390" y2="328" stroke="#172B4D" stroke-width="1.7"/>
<line x1="390" y1="392" x2="390" y2="515" stroke="#172B4D" stroke-width="1.7"/>
<line x1="590" y1="150" x2="590" y2="183" stroke="#172B4D" stroke-width="1.7"/>
<line x1="590" y1="150" x2="660" y2="150" stroke="#172B4D" stroke-width="1.7"/>
<line x1="660" y1="150" x2="660" y2="183" stroke="#172B4D" stroke-width="1.7" marker-end="url(#ah)"/>
<text x="670" y="150" font-size="12.5" fill="#1B6CA8" text-anchor="start" font-style="italic" font-weight="normal">I_out</text>
<text x="670" y="166" font-size="11" fill="#5b6b7f" text-anchor="start" font-weight="normal">→ load</text>
<line x1="590" y1="247" x2="590" y2="328" stroke="#172B4D" stroke-width="1.7"/>
<line x1="590" y1="392" x2="590" y2="515" stroke="#172B4D" stroke-width="1.7"/>
<line x1="360" y1="215" x2="344" y2="215" stroke="#172B4D" stroke-width="1.7"/>
<line x1="344" y1="215" x2="344" y2="165" stroke="#172B4D" stroke-width="1.7"/>
<line x1="344" y1="165" x2="390" y2="165" stroke="#172B4D" stroke-width="1.7"/>
<circle cx="390" cy="165" r="3.3" fill="#172B4D"/>
<line x1="560" y1="215" x2="344" y2="215" stroke="#172B4D" stroke-width="1.7"/>
<line x1="344" y1="215" x2="344" y2="215" stroke="#172B4D" stroke-width="1.7"/>
<line x1="360" y1="360" x2="330" y2="360" stroke="#172B4D" stroke-width="1.7"/>
<line x1="330" y1="360" x2="330" y2="306" stroke="#172B4D" stroke-width="1.7"/>
<line x1="330" y1="306" x2="390" y2="306" stroke="#172B4D" stroke-width="1.7"/>
<circle cx="390" cy="306" r="3.3" fill="#172B4D"/>
<line x1="330" y1="360" x2="330" y2="415" stroke="#172B4D" stroke-width="1.7"/>
<line x1="330" y1="415" x2="560" y2="415" stroke="#172B4D" stroke-width="1.7"/>
<path d="M383,415 A7,7 0 0 1 397,415" fill="none" stroke="#172B4D" stroke-width="1.7"/>
<line x1="560" y1="415" x2="560" y2="360" stroke="#172B4D" stroke-width="1.7"/>
<line x1="300" y1="515" x2="680" y2="515" stroke="#172B4D" stroke-width="1.7"/>
<circle cx="390" cy="515" r="3.3" fill="#172B4D"/>
<circle cx="590" cy="515" r="3.3" fill="#172B4D"/>
<line x1="490" y1="515" x2="490" y2="527" stroke="#172B4D" stroke-width="1.7"/>
<line x1="479" y1="527" x2="501" y2="527" stroke="#172B4D" stroke-width="1.7"/>
<line x1="483" y1="532" x2="497" y2="532" stroke="#172B4D" stroke-width="1.7"/>
<line x1="487" y1="537" x2="493" y2="537" stroke="#172B4D" stroke-width="1.7"/>
<text x="404" y="158" font-size="12.5" fill="#C1440E" text-anchor="start" font-weight="bold">iin</text>
<text x="404" y="173" font-size="12" fill="#C1440E" text-anchor="start" font-weight="normal">1.66 V</text>
<text x="404" y="300" font-size="12.5" fill="#C1440E" text-anchor="start" font-weight="bold">na</text>
<text x="404" y="315" font-size="12" fill="#C1440E" text-anchor="start" font-weight="normal">0.76 V</text>
<text x="604" y="300" font-size="12.5" fill="#C1440E" text-anchor="start" font-weight="bold">nb</text>
<text x="604" y="315" font-size="12" fill="#C1440E" text-anchor="start" font-weight="normal">0.75 V</text>
<text x="604" y="158" font-size="12.5" fill="#1B6CA8" text-anchor="start" font-weight="bold">vout</text>
<text x="604" y="173" font-size="12" fill="#1B6CA8" text-anchor="start" font-weight="normal">0.90 V</text>
<line x1="360" y1="215" x2="216" y2="200.0" stroke="#C1440E" stroke-width="1.0" stroke-dasharray="3,3"/>
<circle cx="360" cy="215" r="2.6" fill="#C1440E"/>
<rect x="20" y="150" width="196" height="100" rx="7" fill="#ffffff" stroke="#C1440E" stroke-width="1.2"/>
<text x="30" y="167" font-size="14" fill="#C1440E" text-anchor="start" font-weight="bold">M3</text>
<text x="207" y="165" font-size="10" fill="#5b6b7f" text-anchor="end" font-weight="normal">W/L 2/0.5</text>
<text x="207" y="177" font-size="9.5" fill="#C1440E" text-anchor="end" font-weight="normal">saturation</text>
<line x1="29" y1="173" x2="207" y2="173" stroke="#C1440E" stroke-width="0.7"/>
<text x="30" y="190" font-size="10.5" fill="#172B4D" text-anchor="start" font-weight="normal">Id = 10.0 µA</text>
<text x="124" y="190" font-size="10.5" fill="#172B4D" text-anchor="start" font-weight="normal">Vds = 0.90 V</text>
<text x="30" y="203.5" font-size="10.5" fill="#172B4D" text-anchor="start" font-weight="normal">Vgs = 0.90 V</text>
<text x="124" y="203.5" font-size="10.5" fill="#172B4D" text-anchor="start" font-weight="normal">Vth = 0.79 V</text>
<text x="30" y="217.0" font-size="10.5" fill="#172B4D" text-anchor="start" font-weight="normal">Vov = 0.11 V</text>
<text x="124" y="217.0" font-size="10.5" fill="#172B4D" text-anchor="start" font-weight="normal">Vdsat = 0.14 V</text>
<text x="30" y="230.5" font-size="10.5" fill="#172B4D" text-anchor="start" font-weight="normal">gm = 128 µS</text>
<text x="124" y="230.5" font-size="10.5" fill="#172B4D" text-anchor="start" font-weight="normal">ro = 1.04 MΩ</text>
<text x="30" y="244.0" font-size="10.5" fill="#172B4D" text-anchor="start" font-weight="normal">gm/Id = 12.8 /V</text>
<line x1="360" y1="360" x2="216" y2="395.0" stroke="#C1440E" stroke-width="1.0" stroke-dasharray="3,3"/>
<circle cx="360" cy="360" r="2.6" fill="#C1440E"/>
<rect x="20" y="345" width="196" height="100" rx="7" fill="#ffffff" stroke="#C1440E" stroke-width="1.2"/>
<text x="30" y="362" font-size="14" fill="#C1440E" text-anchor="start" font-weight="bold">M1</text>
<text x="207" y="360" font-size="10" fill="#5b6b7f" text-anchor="end" font-weight="normal">W/L 2/0.5</text>
<text x="207" y="372" font-size="9.5" fill="#C1440E" text-anchor="end" font-weight="normal">saturation</text>
<line x1="29" y1="368" x2="207" y2="368" stroke="#C1440E" stroke-width="0.7"/>
<text x="30" y="385" font-size="10.5" fill="#172B4D" text-anchor="start" font-weight="normal">Id = 10.0 µA</text>
<text x="124" y="385" font-size="10.5" fill="#172B4D" text-anchor="start" font-weight="normal">Vds = 0.76 V</text>
<text x="30" y="398.5" font-size="10.5" fill="#172B4D" text-anchor="start" font-weight="normal">Vgs = 0.76 V</text>
<text x="124" y="398.5" font-size="10.5" fill="#172B4D" text-anchor="start" font-weight="normal">Vth = 0.63 V</text>
<text x="30" y="412.0" font-size="10.5" fill="#172B4D" text-anchor="start" font-weight="normal">Vov = 0.13 V</text>
<text x="124" y="412.0" font-size="10.5" fill="#172B4D" text-anchor="start" font-weight="normal">Vdsat = 0.13 V</text>
<text x="30" y="425.5" font-size="10.5" fill="#172B4D" text-anchor="start" font-weight="normal">gm = 124 µS</text>
<text x="124" y="425.5" font-size="10.5" fill="#172B4D" text-anchor="start" font-weight="normal">ro = 965 kΩ</text>
<text x="30" y="439.0" font-size="10.5" fill="#172B4D" text-anchor="start" font-weight="normal">gm/Id = 12.4 /V</text>
<line x1="598" y1="215" x2="824" y2="200.0" stroke="#C1440E" stroke-width="1.0" stroke-dasharray="3,3"/>
<circle cx="598" cy="215" r="2.6" fill="#C1440E"/>
<rect x="824" y="150" width="196" height="100" rx="7" fill="#ffffff" stroke="#C1440E" stroke-width="1.2"/>
<text x="834" y="167" font-size="14" fill="#C1440E" text-anchor="start" font-weight="bold">M4</text>
<text x="1011" y="165" font-size="10" fill="#5b6b7f" text-anchor="end" font-weight="normal">W/L 2/0.5</text>
<text x="1011" y="177" font-size="9.5" fill="#C1440E" text-anchor="end" font-weight="normal">saturation</text>
<line x1="833" y1="173" x2="1011" y2="173" stroke="#C1440E" stroke-width="0.7"/>
<text x="834" y="190" font-size="10.5" fill="#172B4D" text-anchor="start" font-weight="normal">Id = 10.0 µA</text>
<text x="928" y="190" font-size="10.5" fill="#172B4D" text-anchor="start" font-weight="normal">Vds = 0.15 V</text>
<text x="834" y="203.5" font-size="10.5" fill="#172B4D" text-anchor="start" font-weight="normal">Vgs = 0.91 V</text>
<text x="928" y="203.5" font-size="10.5" fill="#172B4D" text-anchor="start" font-weight="normal">Vth = 0.79 V</text>
<text x="834" y="217.0" font-size="10.5" fill="#172B4D" text-anchor="start" font-weight="normal">Vov = 0.13 V</text>
<text x="928" y="217.0" font-size="10.5" fill="#172B4D" text-anchor="start" font-weight="normal">Vdsat = 0.14 V</text>
<text x="834" y="230.5" font-size="10.5" fill="#172B4D" text-anchor="start" font-weight="normal">gm = 111 µS</text>
<text x="928" y="230.5" font-size="10.5" fill="#172B4D" text-anchor="start" font-weight="normal">ro = 60 kΩ</text>
<text x="834" y="244.0" font-size="10.5" fill="#172B4D" text-anchor="start" font-weight="normal">gm/Id = 11.2 /V</text>
<line x1="598" y1="360" x2="824" y2="395.0" stroke="#C1440E" stroke-width="1.0" stroke-dasharray="3,3"/>
<circle cx="598" cy="360" r="2.6" fill="#C1440E"/>
<rect x="824" y="345" width="196" height="100" rx="7" fill="#ffffff" stroke="#C1440E" stroke-width="1.2"/>
<text x="834" y="362" font-size="14" fill="#C1440E" text-anchor="start" font-weight="bold">M2</text>
<text x="1011" y="360" font-size="10" fill="#5b6b7f" text-anchor="end" font-weight="normal">W/L 2/0.5</text>
<text x="1011" y="372" font-size="9.5" fill="#C1440E" text-anchor="end" font-weight="normal">saturation</text>
<line x1="833" y1="368" x2="1011" y2="368" stroke="#C1440E" stroke-width="0.7"/>
<text x="834" y="385" font-size="10.5" fill="#172B4D" text-anchor="start" font-weight="normal">Id = 10.0 µA</text>
<text x="928" y="385" font-size="10.5" fill="#172B4D" text-anchor="start" font-weight="normal">Vds = 0.75 V</text>
<text x="834" y="398.5" font-size="10.5" fill="#172B4D" text-anchor="start" font-weight="normal">Vgs = 0.76 V</text>
<text x="928" y="398.5" font-size="10.5" fill="#172B4D" text-anchor="start" font-weight="normal">Vth = 0.63 V</text>
<text x="834" y="412.0" font-size="10.5" fill="#172B4D" text-anchor="start" font-weight="normal">Vov = 0.13 V</text>
<text x="928" y="412.0" font-size="10.5" fill="#172B4D" text-anchor="start" font-weight="normal">Vdsat = 0.13 V</text>
<text x="834" y="425.5" font-size="10.5" fill="#172B4D" text-anchor="start" font-weight="normal">gm = 124 µS</text>
<text x="928" y="425.5" font-size="10.5" fill="#172B4D" text-anchor="start" font-weight="normal">ro = 957 kΩ</text>
<text x="834" y="439.0" font-size="10.5" fill="#172B4D" text-anchor="start" font-weight="normal">gm/Id = 12.4 /V</text>
<text x="520.0" y="544" font-size="11.5" fill="#172B4D" text-anchor="middle" font-weight="bold">V_out,min = V_t + 2V_ov = 0.72 V      R_out = 5.5 MΩ @ V_out=0.9 V      Σ(W·L) = 4.0 µm²   —   note M2 wastes ≈V_t (V_ds=V_gs) and M4 is starved (V_ds=0.15 V, r_o=60 kΩ)</text>
</svg>
