<svg viewBox="0 0 1180 640" xmlns="http://www.w3.org/2000/svg" font-family="Helvetica,Arial,sans-serif">
<rect width="1180" height="640" fill="white"/>
<defs><marker id="ah" markerWidth="9" markerHeight="9" refX="4" refY="4.5" orient="auto"><path d="M0,1 L8,4.5 L0,8 z" fill="#172B4D"/></marker></defs>
<text x="590.0" y="30" font-size="19" font-weight="bold" fill="#172B4D" text-anchor="middle">Figure 2 · Sooch wide-swing cascode NMOS current mirror (5T)</text>
<text x="590.0" y="50" font-size="12.5" fill="#5b6b7f" text-anchor="middle">SKY130 nfet_01v8  ·  I_ref = 10 µA  ·  VDD = 1.8 V  ·  TT 27 °C   (op point per device)</text>
<line x1="410" y1="95" x2="900" y2="95" stroke="#172B4D" stroke-width="1.7"/>
<text x="410" y="86" font-size="12" fill="#5b6b7f" text-anchor="start" font-weight="normal">VDD = 1.8 V</text>
<line x1="470" y1="95" x2="470" y2="107.5" stroke="#172B4D" stroke-width="1.7"/>
<circle cx="470" cy="122.5" r="15" fill="none" stroke="#172B4D" stroke-width="1.7"/>
<line x1="470" y1="130.5" x2="470" y2="115.5" stroke="#172B4D" stroke-width="1.7" marker-end="url(#ah)"/>
<line x1="470" y1="137.5" x2="470" y2="150" stroke="#172B4D" stroke-width="1.7"/>
<text x="491" y="126.5" font-size="12.5" fill="#5b6b7f" text-anchor="start" font-style="italic" font-weight="normal">I_ref</text>
<line x1="650" y1="95" x2="650" y2="107.5" stroke="#172B4D" stroke-width="1.7"/>
<circle cx="650" cy="122.5" r="15" fill="none" stroke="#172B4D" stroke-width="1.7"/>
<line x1="650" y1="130.5" x2="650" y2="115.5" stroke="#172B4D" stroke-width="1.7" marker-end="url(#ah)"/>
<line x1="650" y1="137.5" x2="650" y2="150" stroke="#172B4D" stroke-width="1.7"/>
<text x="671" y="126.5" font-size="12.5" fill="#5b6b7f" text-anchor="start" font-style="italic" font-weight="normal">I_ref</text>
<line x1="470" y1="218" x2="470" y2="232" stroke="#172B4D" stroke-width="1.7"/>
<line x1="470" y1="268" x2="470" y2="282" stroke="#172B4D" stroke-width="1.7"/>
<line x1="470" y1="232" x2="470" y2="268" stroke="#172B4D" stroke-width="2.6"/>
<line x1="462" y1="235" x2="462" y2="265" stroke="#172B4D" stroke-width="2.6"/>
<line x1="440" y1="250" x2="462" y2="250" stroke="#172B4D" stroke-width="1.7"/>
<line x1="470" y1="282" x2="469.99" y2="272" stroke="#172B4D" stroke-width="1.7" marker-end="url(#ah)"/>
<text x="482" y="255" font-size="15" fill="#172B4D" text-anchor="start" font-weight="bold">M5</text>
<line x1="650" y1="218" x2="650" y2="232" stroke="#172B4D" stroke-width="1.7"/>
<line x1="650" y1="268" x2="650" y2="282" stroke="#172B4D" stroke-width="1.7"/>
<line x1="650" y1="232" x2="650" y2="268" stroke="#172B4D" stroke-width="2.6"/>
<line x1="642" y1="235" x2="642" y2="265" stroke="#172B4D" stroke-width="2.6"/>
<line x1="620" y1="250" x2="642" y2="250" stroke="#172B4D" stroke-width="1.7"/>
<line x1="650" y1="282" x2="649.99" y2="272" stroke="#172B4D" stroke-width="1.7" marker-end="url(#ah)"/>
<text x="662" y="255" font-size="15" fill="#172B4D" text-anchor="start" font-weight="bold">M3</text>
<line x1="650" y1="378" x2="650" y2="392" stroke="#172B4D" stroke-width="1.7"/>
<line x1="650" y1="428" x2="650" y2="442" stroke="#172B4D" stroke-width="1.7"/>
<line x1="650" y1="392" x2="650" y2="428" stroke="#172B4D" stroke-width="2.6"/>
<line x1="642" y1="395" x2="642" y2="425" stroke="#172B4D" stroke-width="2.6"/>
<line x1="620" y1="410" x2="642" y2="410" stroke="#172B4D" stroke-width="1.7"/>
<line x1="650" y1="442" x2="649.99" y2="432" stroke="#172B4D" stroke-width="1.7" marker-end="url(#ah)"/>
<text x="662" y="415" font-size="15" fill="#172B4D" text-anchor="start" font-weight="bold">M1</text>
<line x1="820" y1="218" x2="820" y2="232" stroke="#172B4D" stroke-width="1.7"/>
<line x1="820" y1="268" x2="820" y2="282" stroke="#172B4D" stroke-width="1.7"/>
<line x1="820" y1="232" x2="820" y2="268" stroke="#172B4D" stroke-width="2.6"/>
<line x1="812" y1="235" x2="812" y2="265" stroke="#172B4D" stroke-width="2.6"/>
<line x1="790" y1="250" x2="812" y2="250" stroke="#172B4D" stroke-width="1.7"/>
<line x1="820" y1="282" x2="819.99" y2="272" stroke="#172B4D" stroke-width="1.7" marker-end="url(#ah)"/>
<text x="832" y="255" font-size="15" fill="#172B4D" text-anchor="start" font-weight="bold">M4</text>
<line x1="820" y1="378" x2="820" y2="392" stroke="#172B4D" stroke-width="1.7"/>
<line x1="820" y1="428" x2="820" y2="442" stroke="#172B4D" stroke-width="1.7"/>
<line x1="820" y1="392" x2="820" y2="428" stroke="#172B4D" stroke-width="2.6"/>
<line x1="812" y1="395" x2="812" y2="425" stroke="#172B4D" stroke-width="2.6"/>
<line x1="790" y1="410" x2="812" y2="410" stroke="#172B4D" stroke-width="1.7"/>
<line x1="820" y1="442" x2="819.99" y2="432" stroke="#172B4D" stroke-width="1.7" marker-end="url(#ah)"/>
<text x="832" y="415" font-size="15" fill="#172B4D" text-anchor="start" font-weight="bold">M2</text>
<line x1="470" y1="150" x2="470" y2="218" stroke="#172B4D" stroke-width="1.7"/>
<line x1="470" y1="282" x2="470" y2="560" stroke="#172B4D" stroke-width="1.7"/>
<line x1="440" y1="250" x2="440" y2="218" stroke="#172B4D" stroke-width="1.7"/>
<line x1="440" y1="218" x2="470" y2="218" stroke="#172B4D" stroke-width="1.7"/>
<circle cx="470" cy="218" r="3.3" fill="#172B4D"/>
<line x1="650" y1="150" x2="650" y2="218" stroke="#172B4D" stroke-width="1.7"/>
<line x1="650" y1="282" x2="650" y2="378" stroke="#172B4D" stroke-width="1.7"/>
<line x1="650" y1="442" x2="650" y2="560" stroke="#172B4D" stroke-width="1.7"/>
<line x1="820" y1="150" x2="820" y2="218" stroke="#172B4D" stroke-width="1.7"/>
<line x1="820" y1="150" x2="890" y2="150" stroke="#172B4D" stroke-width="1.7"/>
<line x1="890" y1="150" x2="890" y2="185" stroke="#172B4D" stroke-width="1.7" marker-end="url(#ah)"/>
<text x="900" y="150" font-size="12.5" fill="#1B6CA8" text-anchor="start" font-style="italic" font-weight="normal">I_out</text>
<text x="900" y="166" font-size="11" fill="#5b6b7f" text-anchor="start" font-weight="normal">→ load</text>
<line x1="820" y1="282" x2="820" y2="378" stroke="#172B4D" stroke-width="1.7"/>
<line x1="820" y1="442" x2="820" y2="560" stroke="#172B4D" stroke-width="1.7"/>
<line x1="470" y1="151" x2="470" y2="167" stroke="#0B8457" stroke-width="2.6" marker-end="url(#ah)"/>
<text x="460" y="163" font-size="11.5" fill="#0B8457" text-anchor="end" font-weight="bold">I_bias = 10 µA</text>
<line x1="650" y1="151" x2="650" y2="167" stroke="#0B8457" stroke-width="2.6" marker-end="url(#ah)"/>
<text x="640" y="163" font-size="11.5" fill="#0B8457" text-anchor="end" font-weight="bold">I_ref = 10 µA</text>
<line x1="820" y1="151" x2="820" y2="167" stroke="#0B8457" stroke-width="2.6" marker-end="url(#ah)"/>
<text x="810" y="163" font-size="11.5" fill="#0B8457" text-anchor="end" font-weight="bold">I_out = 10 µA</text>
<line x1="470" y1="218" x2="470" y2="205" stroke="#172B4D" stroke-width="1.7"/>
<circle cx="470" cy="205" r="3.3" fill="#172B4D"/>
<line x1="470" y1="205" x2="604" y2="205" stroke="#172B4D" stroke-width="1.7"/>
<line x1="604" y1="205" x2="604" y2="250" stroke="#172B4D" stroke-width="1.7"/>
<line x1="604" y1="250" x2="620" y2="250" stroke="#172B4D" stroke-width="1.7"/>
<line x1="604" y1="205" x2="774" y2="205" stroke="#172B4D" stroke-width="1.7"/>
<path d="M643,205 A7,7 0 0 1 657,205" fill="none" stroke="#172B4D" stroke-width="1.7"/>
<line x1="774" y1="205" x2="774" y2="250" stroke="#172B4D" stroke-width="1.7"/>
<line x1="774" y1="250" x2="790" y2="250" stroke="#172B4D" stroke-width="1.7"/>
<line x1="650" y1="175" x2="580" y2="175" stroke="#172B4D" stroke-width="1.7"/>
<circle cx="650" cy="175" r="3.3" fill="#172B4D"/>
<line x1="580" y1="175" x2="580" y2="468" stroke="#172B4D" stroke-width="1.7"/>
<line x1="580" y1="468" x2="790" y2="468" stroke="#172B4D" stroke-width="1.7"/>
<path d="M643,468 A7,7 0 0 1 657,468" fill="none" stroke="#172B4D" stroke-width="1.7"/>
<line x1="580" y1="468" x2="620" y2="468" stroke="#172B4D" stroke-width="1.7"/>
<line x1="620" y1="468" x2="620" y2="410" stroke="#172B4D" stroke-width="1.7"/>
<line x1="790" y1="468" x2="790" y2="410" stroke="#172B4D" stroke-width="1.7"/>
<line x1="410" y1="560" x2="900" y2="560" stroke="#172B4D" stroke-width="1.7"/>
<circle cx="470" cy="560" r="3.3" fill="#172B4D"/>
<circle cx="650" cy="560" r="3.3" fill="#172B4D"/>
<circle cx="820" cy="560" r="3.3" fill="#172B4D"/>
<line x1="560" y1="560" x2="560" y2="572" stroke="#172B4D" stroke-width="1.7"/>
<line x1="549" y1="572" x2="571" y2="572" stroke="#172B4D" stroke-width="1.7"/>
<line x1="553" y1="577" x2="567" y2="577" stroke="#172B4D" stroke-width="1.7"/>
<line x1="557" y1="582" x2="563" y2="582" stroke="#172B4D" stroke-width="1.7"/>
<text x="484" y="216" font-size="12.5" fill="#1B6CA8" text-anchor="start" font-weight="bold">ncas</text>
<text x="484" y="231" font-size="12" fill="#1B6CA8" text-anchor="start" font-weight="normal">1.02 V</text>
<text x="664" y="150" font-size="12.5" fill="#1B6CA8" text-anchor="start" font-weight="bold">iin = ng</text>
<text x="664" y="165" font-size="12" fill="#1B6CA8" text-anchor="start" font-weight="normal">0.77 V</text>
<text x="664" y="370" font-size="12.5" fill="#1B6CA8" text-anchor="start" font-weight="bold">na</text>
<text x="664" y="385" font-size="12" fill="#1B6CA8" text-anchor="start" font-weight="normal">0.21 V</text>
<text x="834" y="370" font-size="12.5" fill="#1B6CA8" text-anchor="start" font-weight="bold">nb</text>
<text x="834" y="385" font-size="12" fill="#1B6CA8" text-anchor="start" font-weight="normal">0.21 V</text>
<text x="834" y="158" font-size="12.5" fill="#1B6CA8" text-anchor="start" font-weight="bold">vout</text>
<text x="834" y="173" font-size="12" fill="#1B6CA8" text-anchor="start" font-weight="normal">0.90 V</text>
<line x1="440" y1="250" x2="216" y2="170.0" stroke="#1B6CA8" stroke-width="1.0" stroke-dasharray="3,3"/>
<circle cx="440" cy="250" r="2.6" fill="#1B6CA8"/>
<rect x="20" y="120" width="196" height="100" rx="7" fill="#ffffff" stroke="#1B6CA8" stroke-width="1.2"/>
<text x="30" y="137" font-size="14" fill="#1B6CA8" text-anchor="start" font-weight="bold">M5</text>
<text x="207" y="135" font-size="10" fill="#5b6b7f" text-anchor="end" font-weight="normal">W/L 0.5/1.0</text>
<text x="207" y="147" font-size="9.5" fill="#1B6CA8" text-anchor="end" font-weight="normal">saturation</text>
<line x1="29" y1="143" x2="207" y2="143" stroke="#1B6CA8" stroke-width="0.7"/>
<text x="30" y="160" font-size="10.5" fill="#172B4D" text-anchor="start" font-weight="normal">Id = 10.0 µA</text>
<text x="124" y="160" font-size="10.5" fill="#172B4D" text-anchor="start" font-weight="normal">Vds = 1.02 V</text>
<text x="30" y="173.5" font-size="10.5" fill="#172B4D" text-anchor="start" font-weight="normal">Vgs = 1.02 V</text>
<text x="124" y="173.5" font-size="10.5" fill="#172B4D" text-anchor="start" font-weight="normal">Vth = 0.59 V</text>
<text x="30" y="187.0" font-size="10.5" fill="#172B4D" text-anchor="start" font-weight="normal">Vov = 0.43 V</text>
<text x="124" y="187.0" font-size="10.5" fill="#172B4D" text-anchor="start" font-weight="normal">Vdsat = 0.34 V</text>
<text x="30" y="200.5" font-size="10.5" fill="#172B4D" text-anchor="start" font-weight="normal">gm = 43 µS</text>
<text x="124" y="200.5" font-size="10.5" fill="#172B4D" text-anchor="start" font-weight="normal">ro = 1.46 MΩ</text>
<text x="30" y="214.0" font-size="10.5" fill="#172B4D" text-anchor="start" font-weight="normal">gm/Id = 4.3 /V</text>
<line x1="620" y1="250" x2="216" y2="350.0" stroke="#1B6CA8" stroke-width="1.0" stroke-dasharray="3,3"/>
<circle cx="620" cy="250" r="2.6" fill="#1B6CA8"/>
<rect x="20" y="300" width="196" height="100" rx="7" fill="#ffffff" stroke="#1B6CA8" stroke-width="1.2"/>
<text x="30" y="317" font-size="14" fill="#1B6CA8" text-anchor="start" font-weight="bold">M3</text>
<text x="207" y="315" font-size="10" fill="#5b6b7f" text-anchor="end" font-weight="normal">W/L 2/0.5</text>
<text x="207" y="327" font-size="9.5" fill="#1B6CA8" text-anchor="end" font-weight="normal">saturation</text>
<line x1="29" y1="323" x2="207" y2="323" stroke="#1B6CA8" stroke-width="0.7"/>
<text x="30" y="340" font-size="10.5" fill="#172B4D" text-anchor="start" font-weight="normal">Id = 10.0 µA</text>
<text x="124" y="340" font-size="10.5" fill="#172B4D" text-anchor="start" font-weight="normal">Vds = 0.55 V</text>
<text x="30" y="353.5" font-size="10.5" fill="#172B4D" text-anchor="start" font-weight="normal">Vgs = 0.81 V</text>
<text x="124" y="353.5" font-size="10.5" fill="#172B4D" text-anchor="start" font-weight="normal">Vth = 0.68 V</text>
<text x="30" y="367.0" font-size="10.5" fill="#172B4D" text-anchor="start" font-weight="normal">Vov = 0.12 V</text>
<text x="124" y="367.0" font-size="10.5" fill="#172B4D" text-anchor="start" font-weight="normal">Vdsat = 0.13 V</text>
<text x="30" y="380.5" font-size="10.5" fill="#172B4D" text-anchor="start" font-weight="normal">gm = 124 µS</text>
<text x="124" y="380.5" font-size="10.5" fill="#172B4D" text-anchor="start" font-weight="normal">ro = 762 kΩ</text>
<text x="30" y="394.0" font-size="10.5" fill="#172B4D" text-anchor="start" font-weight="normal">gm/Id = 12.4 /V</text>
<line x1="620" y1="410" x2="216" y2="520.0" stroke="#1B6CA8" stroke-width="1.0" stroke-dasharray="3,3"/>
<circle cx="620" cy="410" r="2.6" fill="#1B6CA8"/>
<rect x="20" y="470" width="196" height="100" rx="7" fill="#ffffff" stroke="#1B6CA8" stroke-width="1.2"/>
<text x="30" y="487" font-size="14" fill="#1B6CA8" text-anchor="start" font-weight="bold">M1</text>
<text x="207" y="485" font-size="10" fill="#5b6b7f" text-anchor="end" font-weight="normal">W/L 2/0.5</text>
<text x="207" y="497" font-size="9.5" fill="#1B6CA8" text-anchor="end" font-weight="normal">saturation</text>
<line x1="29" y1="493" x2="207" y2="493" stroke="#1B6CA8" stroke-width="0.7"/>
<text x="30" y="510" font-size="10.5" fill="#172B4D" text-anchor="start" font-weight="normal">Id = 10.0 µA</text>
<text x="124" y="510" font-size="10.5" fill="#172B4D" text-anchor="start" font-weight="normal">Vds = 0.21 V</text>
<text x="30" y="523.5" font-size="10.5" fill="#172B4D" text-anchor="start" font-weight="normal">Vgs = 0.77 V</text>
<text x="124" y="523.5" font-size="10.5" fill="#172B4D" text-anchor="start" font-weight="normal">Vth = 0.63 V</text>
<text x="30" y="537.0" font-size="10.5" fill="#172B4D" text-anchor="start" font-weight="normal">Vov = 0.13 V</text>
<text x="124" y="537.0" font-size="10.5" fill="#172B4D" text-anchor="start" font-weight="normal">Vdsat = 0.13 V</text>
<text x="30" y="550.5" font-size="10.5" fill="#172B4D" text-anchor="start" font-weight="normal">gm = 118 µS</text>
<text x="124" y="550.5" font-size="10.5" fill="#172B4D" text-anchor="start" font-weight="normal">ro = 187 kΩ</text>
<text x="30" y="564.0" font-size="10.5" fill="#172B4D" text-anchor="start" font-weight="normal">gm/Id = 11.8 /V</text>
<line x1="828" y1="250" x2="964" y2="300.0" stroke="#1B6CA8" stroke-width="1.0" stroke-dasharray="3,3"/>
<circle cx="828" cy="250" r="2.6" fill="#1B6CA8"/>
<rect x="964" y="250" width="196" height="100" rx="7" fill="#ffffff" stroke="#1B6CA8" stroke-width="1.2"/>
<text x="974" y="267" font-size="14" fill="#1B6CA8" text-anchor="start" font-weight="bold">M4</text>
<text x="1151" y="265" font-size="10" fill="#5b6b7f" text-anchor="end" font-weight="normal">W/L 2/0.5</text>
<text x="1151" y="277" font-size="9.5" fill="#1B6CA8" text-anchor="end" font-weight="normal">saturation</text>
<line x1="973" y1="273" x2="1151" y2="273" stroke="#1B6CA8" stroke-width="0.7"/>
<text x="974" y="290" font-size="10.5" fill="#172B4D" text-anchor="start" font-weight="normal">Id = 10.0 µA</text>
<text x="1068" y="290" font-size="10.5" fill="#172B4D" text-anchor="start" font-weight="normal">Vds = 0.68 V</text>
<text x="974" y="303.5" font-size="10.5" fill="#172B4D" text-anchor="start" font-weight="normal">Vgs = 0.81 V</text>
<text x="1068" y="303.5" font-size="10.5" fill="#172B4D" text-anchor="start" font-weight="normal">Vth = 0.68 V</text>
<text x="974" y="317.0" font-size="10.5" fill="#172B4D" text-anchor="start" font-weight="normal">Vov = 0.12 V</text>
<text x="1068" y="317.0" font-size="10.5" fill="#172B4D" text-anchor="start" font-weight="normal">Vdsat = 0.13 V</text>
<text x="974" y="330.5" font-size="10.5" fill="#172B4D" text-anchor="start" font-weight="normal">gm = 125 µS</text>
<text x="1068" y="330.5" font-size="10.5" fill="#172B4D" text-anchor="start" font-weight="normal">ro = 894 kΩ</text>
<text x="974" y="344.0" font-size="10.5" fill="#172B4D" text-anchor="start" font-weight="normal">gm/Id = 12.5 /V</text>
<line x1="828" y1="410" x2="964" y2="480.0" stroke="#1B6CA8" stroke-width="1.0" stroke-dasharray="3,3"/>
<circle cx="828" cy="410" r="2.6" fill="#1B6CA8"/>
<rect x="964" y="430" width="196" height="100" rx="7" fill="#ffffff" stroke="#1B6CA8" stroke-width="1.2"/>
<text x="974" y="447" font-size="14" fill="#1B6CA8" text-anchor="start" font-weight="bold">M2</text>
<text x="1151" y="445" font-size="10" fill="#5b6b7f" text-anchor="end" font-weight="normal">W/L 2/0.5</text>
<text x="1151" y="457" font-size="9.5" fill="#1B6CA8" text-anchor="end" font-weight="normal">saturation</text>
<line x1="973" y1="453" x2="1151" y2="453" stroke="#1B6CA8" stroke-width="0.7"/>
<text x="974" y="470" font-size="10.5" fill="#172B4D" text-anchor="start" font-weight="normal">Id = 10.0 µA</text>
<text x="1068" y="470" font-size="10.5" fill="#172B4D" text-anchor="start" font-weight="normal">Vds = 0.22 V</text>
<text x="974" y="483.5" font-size="10.5" fill="#172B4D" text-anchor="start" font-weight="normal">Vgs = 0.77 V</text>
<text x="1068" y="483.5" font-size="10.5" fill="#172B4D" text-anchor="start" font-weight="normal">Vth = 0.63 V</text>
<text x="974" y="497.0" font-size="10.5" fill="#172B4D" text-anchor="start" font-weight="normal">Vov = 0.13 V</text>
<text x="1068" y="497.0" font-size="10.5" fill="#172B4D" text-anchor="start" font-weight="normal">Vdsat = 0.13 V</text>
<text x="974" y="510.5" font-size="10.5" fill="#172B4D" text-anchor="start" font-weight="normal">gm = 118 µS</text>
<text x="1068" y="510.5" font-size="10.5" fill="#172B4D" text-anchor="start" font-weight="normal">ro = 189 kΩ</text>
<text x="974" y="524.0" font-size="10.5" fill="#172B4D" text-anchor="start" font-weight="normal">gm/Id = 11.8 /V</text>
<text x="590.0" y="624" font-size="11.5" fill="#172B4D" text-anchor="middle" font-weight="bold">V_out,min = 2V_ov = 0.34 V      R_out = 26 MΩ @ V_out=0.9 V      Σ(W·L) = 4.5 µm²   —   M5 sets ncas=V_t+2V_ov so M1,M2 sit at V_ds≈V_dsat (just saturated); cascodes keep high r_o</text>
</svg>
