<svg viewBox="0 0 980 560" xmlns="http://www.w3.org/2000/svg" font-family="Helvetica,Arial,sans-serif">
<rect width="980" height="560" fill="white"/>
<defs><marker id="ah" markerWidth="9" markerHeight="9" refX="4" refY="4.5" orient="auto"><path d="M0,1 L8,4.5 L0,8 z" fill="#172B4D"/></marker></defs>
<text x="490.0" y="30" font-size="19" font-weight="bold" fill="#172B4D" text-anchor="middle">Sooch wide-swing cascode NMOS current mirror  ·  5T</text>
<text x="490.0" y="50" font-size="12.5" fill="#5b6b7f" text-anchor="middle">SKY130 nfet_01v8  ·  I_ref = 10 µA  ·  VDD = 1.8 V  ·  TT 27 °C</text>
<line x1="120" y1="90" x2="660" y2="90" stroke="#172B4D" stroke-width="1.7"/>
<text x="120" y="81" font-size="12" fill="#5b6b7f" text-anchor="start" font-weight="normal">VDD = 1.8 V</text>
<line x1="180" y1="90" x2="180" y2="105.0" stroke="#172B4D" stroke-width="1.7"/>
<circle cx="180" cy="120.0" r="15" fill="none" stroke="#172B4D" stroke-width="1.7"/>
<line x1="180" y1="128.0" x2="180" y2="113.0" stroke="#172B4D" stroke-width="1.7" marker-end="url(#ah)"/>
<line x1="180" y1="135.0" x2="180" y2="150" stroke="#172B4D" stroke-width="1.7"/>
<text x="201" y="124.0" font-size="12.5" fill="#5b6b7f" text-anchor="start" font-style="italic" font-weight="normal">I_ref</text>
<line x1="430" y1="90" x2="430" y2="105.0" stroke="#172B4D" stroke-width="1.7"/>
<circle cx="430" cy="120.0" r="15" fill="none" stroke="#172B4D" stroke-width="1.7"/>
<line x1="430" y1="128.0" x2="430" y2="113.0" stroke="#172B4D" stroke-width="1.7" marker-end="url(#ah)"/>
<line x1="430" y1="135.0" x2="430" y2="150" stroke="#172B4D" stroke-width="1.7"/>
<text x="451" y="124.0" font-size="12.5" fill="#5b6b7f" text-anchor="start" font-style="italic" font-weight="normal">I_ref</text>
<line x1="180" y1="218" x2="180" y2="232" stroke="#172B4D" stroke-width="1.7"/>
<line x1="180" y1="268" x2="180" y2="282" stroke="#172B4D" stroke-width="1.7"/>
<line x1="180" y1="232" x2="180" y2="268" stroke="#172B4D" stroke-width="2.6"/>
<line x1="172" y1="235" x2="172" y2="265" stroke="#172B4D" stroke-width="2.6"/>
<line x1="150" y1="250" x2="172" y2="250" stroke="#172B4D" stroke-width="1.7"/>
<line x1="180" y1="282" x2="179.99" y2="272" stroke="#172B4D" stroke-width="1.7" marker-end="url(#ah)"/>
<text x="192" y="255" font-size="15" fill="#172B4D" text-anchor="start" font-weight="bold">M5</text>
<line x1="430" y1="218" x2="430" y2="232" stroke="#172B4D" stroke-width="1.7"/>
<line x1="430" y1="268" x2="430" y2="282" stroke="#172B4D" stroke-width="1.7"/>
<line x1="430" y1="232" x2="430" y2="268" stroke="#172B4D" stroke-width="2.6"/>
<line x1="422" y1="235" x2="422" y2="265" stroke="#172B4D" stroke-width="2.6"/>
<line x1="400" y1="250" x2="422" y2="250" stroke="#172B4D" stroke-width="1.7"/>
<line x1="430" y1="282" x2="429.99" y2="272" stroke="#172B4D" stroke-width="1.7" marker-end="url(#ah)"/>
<text x="442" y="255" font-size="15" fill="#172B4D" text-anchor="start" font-weight="bold">M3</text>
<line x1="430" y1="358" x2="430" y2="372" stroke="#172B4D" stroke-width="1.7"/>
<line x1="430" y1="408" x2="430" y2="422" stroke="#172B4D" stroke-width="1.7"/>
<line x1="430" y1="372" x2="430" y2="408" stroke="#172B4D" stroke-width="2.6"/>
<line x1="422" y1="375" x2="422" y2="405" stroke="#172B4D" stroke-width="2.6"/>
<line x1="400" y1="390" x2="422" y2="390" stroke="#172B4D" stroke-width="1.7"/>
<line x1="430" y1="422" x2="429.99" y2="412" stroke="#172B4D" stroke-width="1.7" marker-end="url(#ah)"/>
<text x="442" y="395" font-size="15" fill="#172B4D" text-anchor="start" font-weight="bold">M1</text>
<line x1="600" y1="218" x2="600" y2="232" stroke="#172B4D" stroke-width="1.7"/>
<line x1="600" y1="268" x2="600" y2="282" stroke="#172B4D" stroke-width="1.7"/>
<line x1="600" y1="232" x2="600" y2="268" stroke="#172B4D" stroke-width="2.6"/>
<line x1="592" y1="235" x2="592" y2="265" stroke="#172B4D" stroke-width="2.6"/>
<line x1="570" y1="250" x2="592" y2="250" stroke="#172B4D" stroke-width="1.7"/>
<line x1="600" y1="282" x2="599.99" y2="272" stroke="#172B4D" stroke-width="1.7" marker-end="url(#ah)"/>
<text x="612" y="255" font-size="15" fill="#172B4D" text-anchor="start" font-weight="bold">M4</text>
<line x1="600" y1="358" x2="600" y2="372" stroke="#172B4D" stroke-width="1.7"/>
<line x1="600" y1="408" x2="600" y2="422" stroke="#172B4D" stroke-width="1.7"/>
<line x1="600" y1="372" x2="600" y2="408" stroke="#172B4D" stroke-width="2.6"/>
<line x1="592" y1="375" x2="592" y2="405" stroke="#172B4D" stroke-width="2.6"/>
<line x1="570" y1="390" x2="592" y2="390" stroke="#172B4D" stroke-width="1.7"/>
<line x1="600" y1="422" x2="599.99" y2="412" stroke="#172B4D" stroke-width="1.7" marker-end="url(#ah)"/>
<text x="612" y="395" font-size="15" fill="#172B4D" text-anchor="start" font-weight="bold">M2</text>
<line x1="180" y1="150" x2="180" y2="218" stroke="#172B4D" stroke-width="1.7"/>
<line x1="180" y1="282" x2="180" y2="525" stroke="#172B4D" stroke-width="1.7"/>
<line x1="150" y1="250" x2="150" y2="218" stroke="#172B4D" stroke-width="1.7"/>
<line x1="150" y1="218" x2="180" y2="218" stroke="#172B4D" stroke-width="1.7"/>
<circle cx="180" cy="218" r="3.3" fill="#172B4D"/>
<line x1="430" y1="150" x2="430" y2="218" stroke="#172B4D" stroke-width="1.7"/>
<line x1="430" y1="282" x2="430" y2="358" stroke="#172B4D" stroke-width="1.7"/>
<line x1="430" y1="422" x2="430" y2="525" stroke="#172B4D" stroke-width="1.7"/>
<line x1="600" y1="150" x2="600" y2="218" stroke="#172B4D" stroke-width="1.7"/>
<line x1="600" y1="150" x2="670" y2="150" stroke="#172B4D" stroke-width="1.7"/>
<line x1="670" y1="150" x2="670" y2="185" stroke="#172B4D" stroke-width="1.7" marker-end="url(#ah)"/>
<text x="680" y="150" font-size="12.5" fill="#1B6CA8" text-anchor="start" font-style="italic" font-weight="normal">I_out</text>
<text x="680" y="166" font-size="11" fill="#5b6b7f" text-anchor="start" font-weight="normal">→ load</text>
<line x1="600" y1="282" x2="600" y2="358" stroke="#172B4D" stroke-width="1.7"/>
<line x1="600" y1="422" x2="600" y2="525" stroke="#172B4D" stroke-width="1.7"/>
<line x1="180" y1="218" x2="180" y2="205" stroke="#172B4D" stroke-width="1.7"/>
<circle cx="180" cy="205" r="3.3" fill="#172B4D"/>
<line x1="180" y1="205" x2="384" y2="205" stroke="#172B4D" stroke-width="1.7"/>
<line x1="384" y1="205" x2="384" y2="250" stroke="#172B4D" stroke-width="1.7"/>
<line x1="384" y1="250" x2="400" y2="250" stroke="#172B4D" stroke-width="1.7"/>
<line x1="384" y1="205" x2="554" y2="205" stroke="#172B4D" stroke-width="1.7"/>
<path d="M423,205 A7,7 0 0 1 437,205" fill="none" stroke="#172B4D" stroke-width="1.7"/>
<line x1="554" y1="205" x2="554" y2="250" stroke="#172B4D" stroke-width="1.7"/>
<line x1="554" y1="250" x2="570" y2="250" stroke="#172B4D" stroke-width="1.7"/>
<line x1="430" y1="175" x2="360" y2="175" stroke="#172B4D" stroke-width="1.7"/>
<circle cx="430" cy="175" r="3.3" fill="#172B4D"/>
<line x1="360" y1="175" x2="360" y2="448" stroke="#172B4D" stroke-width="1.7"/>
<line x1="360" y1="448" x2="570" y2="448" stroke="#172B4D" stroke-width="1.7"/>
<path d="M423,448 A7,7 0 0 1 437,448" fill="none" stroke="#172B4D" stroke-width="1.7"/>
<line x1="360" y1="448" x2="400" y2="448" stroke="#172B4D" stroke-width="1.7"/>
<line x1="400" y1="448" x2="400" y2="390" stroke="#172B4D" stroke-width="1.7"/>
<line x1="570" y1="448" x2="570" y2="390" stroke="#172B4D" stroke-width="1.7"/>
<line x1="120" y1="525" x2="660" y2="525" stroke="#172B4D" stroke-width="1.7"/>
<circle cx="180" cy="525" r="3.3" fill="#172B4D"/>
<circle cx="430" cy="525" r="3.3" fill="#172B4D"/>
<circle cx="600" cy="525" r="3.3" fill="#172B4D"/>
<line x1="390" y1="525" x2="390" y2="537" stroke="#172B4D" stroke-width="1.7"/>
<line x1="379" y1="537" x2="401" y2="537" stroke="#172B4D" stroke-width="1.7"/>
<line x1="383" y1="542" x2="397" y2="542" stroke="#172B4D" stroke-width="1.7"/>
<line x1="387" y1="547" x2="393" y2="547" stroke="#172B4D" stroke-width="1.7"/>
<text x="194" y="216" font-size="12.5" fill="#1B6CA8" text-anchor="start" font-weight="bold">ncas</text>
<text x="194" y="231" font-size="12" fill="#1B6CA8" text-anchor="start" font-weight="normal">1.02 V</text>
<text x="444" y="150" font-size="12.5" fill="#1B6CA8" text-anchor="start" font-weight="bold">iin = ng</text>
<text x="444" y="165" font-size="12" fill="#1B6CA8" text-anchor="start" font-weight="normal">0.77 V</text>
<text x="444" y="350" font-size="12.5" fill="#1B6CA8" text-anchor="start" font-weight="bold">na</text>
<text x="444" y="365" font-size="12" fill="#1B6CA8" text-anchor="start" font-weight="normal">0.21 V</text>
<text x="614" y="350" font-size="12.5" fill="#1B6CA8" text-anchor="start" font-weight="bold">nb</text>
<text x="614" y="365" font-size="12" fill="#1B6CA8" text-anchor="start" font-weight="normal">0.21 V</text>
<text x="614" y="158" font-size="12.5" fill="#1B6CA8" text-anchor="start" font-weight="bold">vout</text>
<text x="614" y="173" font-size="12" fill="#1B6CA8" text-anchor="start" font-weight="normal">0.90 V</text>
<rect x="720" y="150" width="250" height="132" rx="7" fill="#eef4f9" stroke="#1B6CA8" stroke-width="1.2"/>
<text x="734" y="175" font-size="12.5" fill="#172B4D" text-anchor="start" font-weight="bold">M1–M4</text>
<text x="810" y="175" font-size="12.5" fill="#1B6CA8" text-anchor="start" font-weight="bold">W/L = 2 / 0.5 µm</text>
<text x="734" y="193" font-size="12.5" fill="#172B4D" text-anchor="start" font-weight="bold">M5 (bias)</text>
<text x="810" y="193" font-size="12.5" fill="#1B6CA8" text-anchor="start" font-weight="bold">W/L = 0.5 / 1.0 µm</text>
<text x="734" y="216" font-size="11.5" fill="#172B4D" text-anchor="start" font-weight="normal">M5 sets ncas = V_t + 2V_ov, so the</text>
<text x="734" y="232" font-size="11.5" fill="#1B6CA8" text-anchor="start" font-weight="normal">bottom pair sits at V_ds ≈ V_dsat</text>
<text x="734" y="248" font-size="11.5" fill="#172B4D" text-anchor="start" font-weight="normal">= 0.21 V (just saturated). Cascodes</text>
<text x="734" y="264" font-size="11.5" fill="#1B6CA8" text-anchor="start" font-weight="normal">M3,M4 keep V_ds ≈ 0.6 V → high r_o.</text>
<rect x="720" y="297" width="250" height="66" rx="7" fill="#eaeef2" stroke="#5b6b7f" stroke-width="1.2"/>
<text x="734" y="320" font-size="12.5" fill="#172B4D" text-anchor="start" font-weight="bold">V_out,min = 2V_ov = 0.34 V</text>
<text x="734" y="342" font-size="12.5" fill="#172B4D" text-anchor="start" font-weight="bold">R_out = 26 MΩ   (@ V_out = 0.9 V)</text>
</svg>
